<svg width="48" height="48" viewBox="0 0 48 48" fill="none" xmlns="http://www.w3.org/2000/svg">
<path fill-rule="evenodd" clip-rule="evenodd" d="M24 44.1379C35.1219 44.1379 44.1379 35.1219 44.1379 24C44.1379 12.8781 35.1219 3.86207 24 3.86207C12.8781 3.86207 3.86207 12.8781 3.86207 24C3.86207 35.1219 12.8781 44.1379 24 44.1379ZM24 48C37.2548 48 48 37.2548 48 24C48 10.7452 37.2548 0 24 0C10.7452 0 0 10.7452 0 24C0 37.2548 10.7452 48 24 48Z" fill="#0b0a0a"/>
<path fill-rule="evenodd" clip-rule="evenodd" d="M24.069 8.48097C17.632 8.48097 12.4138 13.6992 12.4138 20.1361V34.69C12.4138 35.7573 13.279 36.6225 14.3463 36.6225C15.4135 36.6225 16.2787 35.7573 16.2787 34.69V32.3952C16.2787 31.3279 17.1439 30.4627 18.2112 30.4627C19.2785 30.4627 20.1436 31.3279 20.1436 32.3952V32.5764C20.1436 33.677 21.0359 34.5692 22.1365 34.5692H22.4384C23.3723 34.5692 24.1294 33.8122 24.1294 32.8783C24.1294 31.9445 24.8864 31.1874 25.8203 31.1874H26.7865C27.4535 31.1874 27.9943 31.7282 27.9943 32.3952C27.9943 33.0623 28.535 33.603 29.2021 33.603H30.3495C31.1833 33.603 31.8592 34.2789 31.8592 35.1127C31.8592 35.9465 32.5351 36.6225 33.3689 36.6225H33.7917C34.8589 36.6225 35.7241 35.7573 35.7241 34.69V20.1361C35.7241 13.6992 30.5059 8.48097 24.069 8.48097ZM18.8151 19.2303C18.8151 18.4298 19.464 17.781 20.2644 17.781C21.0649 17.781 21.7138 18.4298 21.7138 19.2303V21.7667C21.7138 22.5671 21.0649 23.216 20.2644 23.216C19.464 23.216 18.8151 22.5671 18.8151 21.7667V19.2303ZM27.9943 17.781C27.1938 17.781 26.5449 18.4298 26.5449 19.2303V21.7667C26.5449 22.5671 27.1938 23.216 27.9943 23.216C28.7947 23.216 29.4436 22.5671 29.4436 21.7667V19.2303C29.4436 18.4298 28.7947 17.781 27.9943 17.781Z" fill="#0b0a0a"/>
</svg>
